<svg id="svg" version="1.1" width="546" height="546" xmlns="http://www.w3.org/2000/svg" xmlns:xlink="http://www.w3.org/1999/xlink" ><g id="svgg"><path id="path0" d="M195.971 71.716 C 195.165 72.046,191.877 72.549,188.665 72.834 C 185.453 73.118,182.486 73.618,182.072 73.946 C 181.658 74.273,179.760 74.766,177.856 75.041 C 175.951 75.317,174.201 75.853,173.967 76.233 C 173.732 76.612,172.896 76.923,172.108 76.923 C 170.725 76.923,170.012 77.188,166.493 79.006 C 165.592 79.472,164.438 79.856,163.929 79.858 C 163.420 79.860,162.179 80.285,161.172 80.802 C 160.165 81.319,157.775 82.333,155.861 83.056 C 153.947 83.779,152.381 84.637,152.381 84.963 C 152.381 85.289,151.478 85.782,150.374 86.059 C 149.270 86.336,148.198 86.784,147.993 87.054 C 147.466 87.747,142.016 90.855,140.476 91.341 C 139.771 91.564,139.194 92.037,139.194 92.393 C 139.194 92.749,138.757 93.040,138.223 93.040 C 137.689 93.040,136.477 93.864,135.531 94.872 C 134.585 95.879,133.534 96.703,133.195 96.703 C 132.395 96.703,124.851 102.853,121.808 105.987 C 120.505 107.328,119.104 108.425,118.694 108.425 C 118.284 108.425,117.949 108.693,117.949 109.022 C 117.949 109.350,115.476 112.181,112.454 115.312 C 109.432 118.444,106.960 121.308,106.960 121.675 C 106.960 124.295,103.821 125.507,100.070 124.337 C 92.256 121.899,77.287 119.697,76.557 120.878 C 76.334 121.240,77.688 122.624,79.566 123.955 C 83.792 126.948,91.979 134.491,93.860 137.126 L 95.261 139.086 91.233 146.872 C 89.018 151.153,87.269 154.886,87.346 155.167 C 87.424 155.448,86.959 156.832,86.313 158.242 C 84.746 161.663,83.989 163.582,83.858 164.469 C 83.613 166.118,82.630 169.690,82.044 171.062 C 81.700 171.868,81.226 173.681,80.991 175.092 C 80.756 176.502,80.410 178.315,80.222 179.121 C 78.163 187.941,76.675 221.978,78.349 221.978 C 78.786 221.978,79.121 223.549,79.121 225.598 C 79.121 227.589,79.454 229.424,79.861 229.675 C 80.269 229.927,80.599 231.018,80.596 232.099 C 80.585 235.628,81.458 240.293,82.128 240.293 C 82.489 240.293,82.784 241.263,82.784 242.448 C 82.784 243.633,83.127 244.814,83.546 245.073 C 83.966 245.333,84.117 246.148,83.883 246.886 C 83.649 247.624,83.800 248.440,84.219 248.700 C 84.639 248.959,84.982 249.811,84.982 250.593 C 84.982 251.375,85.282 252.015,85.650 252.015 C 86.017 252.015,86.541 253.333,86.813 254.945 C 87.085 256.557,87.609 257.875,87.976 257.875 C 88.344 257.875,88.645 258.341,88.645 258.910 C 88.645 261.982,104.466 288.645,106.288 288.645 C 106.658 288.645,106.960 289.139,106.960 289.744 C 106.960 290.946,125.920 309.867,130.084 312.821 C 131.504 313.828,134.217 315.806,136.113 317.216 C 139.188 319.504,141.068 320.659,146.154 323.389 C 146.960 323.822,147.821 324.451,148.067 324.788 C 148.314 325.124,148.808 325.414,149.166 325.431 C 150.341 325.486,151.998 326.275,152.983 327.248 C 153.515 327.775,154.567 328.205,155.320 328.205 C 156.074 328.205,156.894 328.535,157.143 328.938 C 157.392 329.341,158.236 329.670,159.018 329.670 C 159.800 329.670,160.440 329.996,160.440 330.394 C 160.440 330.792,161.758 331.329,163.370 331.587 C 164.982 331.845,166.300 332.343,166.300 332.694 C 166.300 333.046,166.940 333.333,167.722 333.333 C 168.504 333.333,169.325 333.625,169.545 333.981 C 169.765 334.338,171.425 334.851,173.234 335.123 C 175.043 335.394,176.715 335.926,176.949 336.306 C 177.184 336.686,178.455 336.996,179.775 336.996 C 181.094 336.996,182.421 337.244,182.723 337.546 C 183.025 337.848,184.151 338.164,185.226 338.248 C 186.300 338.332,189.158 338.780,191.575 339.243 C 197.457 340.371,226.950 340.971,228.908 340.004 C 229.730 339.597,232.216 339.090,234.432 338.876 C 240.855 338.256,241.605 338.127,242.186 337.546 C 242.488 337.244,243.814 336.996,245.134 336.996 C 246.453 336.996,247.719 336.695,247.946 336.327 C 248.173 335.960,249.746 335.424,251.441 335.138 C 253.136 334.852,255.030 334.356,255.649 334.037 C 258.189 332.729,262.176 331.136,262.909 331.136 C 263.339 331.136,264.858 330.480,266.283 329.680 C 267.709 328.879,268.955 328.241,269.053 328.262 C 269.444 328.345,272.184 327.186,272.527 326.793 C 273.240 325.976,277.528 323.810,278.432 323.810 C 278.936 323.810,280.429 322.985,281.750 321.978 C 283.071 320.971,284.503 320.147,284.933 320.147 C 285.363 320.147,285.714 319.839,285.714 319.463 C 285.714 319.088,286.456 318.546,287.363 318.260 C 288.269 317.973,289.544 317.127,290.196 316.379 C 290.847 315.630,291.616 315.018,291.903 315.018 C 294.146 315.018,317.179 292.243,317.300 289.905 C 317.538 285.320,315.595 282.851,311.714 282.808 C 309.699 282.786,305.521 285.612,305.479 287.026 C 305.453 287.914,296.511 296.938,293.040 299.578 C 291.227 300.957,289.414 302.445,289.011 302.884 C 288.608 303.324,287.323 304.338,286.155 305.138 C 275.867 312.187,273.062 313.929,272.344 313.716 C 272.042 313.626,271.795 313.821,271.795 314.149 C 271.795 314.477,270.641 315.198,269.231 315.751 C 267.821 316.304,266.667 317.025,266.667 317.353 C 266.667 317.681,266.304 317.949,265.862 317.949 C 265.419 317.949,264.018 318.408,262.748 318.969 C 259.840 320.255,257.651 321.101,257.021 321.182 C 256.752 321.217,256.285 321.493,255.983 321.795 C 255.681 322.097,254.829 322.344,254.090 322.344 C 253.352 322.344,252.747 322.650,252.747 323.024 C 252.747 323.398,250.930 323.931,248.708 324.209 C 246.487 324.486,244.489 325.005,244.269 325.360 C 244.050 325.716,242.955 326.007,241.837 326.007 C 240.719 326.007,239.557 326.255,239.255 326.557 C 238.953 326.859,237.827 327.178,236.752 327.266 C 235.678 327.354,232.326 327.819,229.304 328.299 C 222.110 329.443,202.572 329.442,195.604 328.297 C 192.582 327.801,189.225 327.416,188.143 327.442 C 187.062 327.467,185.971 327.155,185.719 326.748 C 185.467 326.341,184.311 326.007,183.150 326.007 C 181.989 326.007,180.859 325.716,180.638 325.359 C 180.418 325.003,178.702 324.481,176.824 324.199 C 174.947 323.918,172.883 323.413,172.237 323.077 C 169.299 321.551,165.610 320.147,164.541 320.147 C 163.897 320.147,163.370 319.817,163.370 319.414 C 163.370 319.011,162.856 318.681,162.229 318.681 C 161.124 318.681,155.156 315.634,153.297 314.119 C 152.793 313.709,152.381 313.636,152.381 313.957 C 152.381 314.278,151.639 313.846,150.733 312.997 C 149.826 312.148,148.260 311.102,147.253 310.673 C 144.877 309.662,143.022 308.486,140.239 306.227 C 138.999 305.220,136.690 303.425,135.109 302.238 C 131.948 299.865,119.461 287.340,116.352 283.425 C 111.144 276.864,109.588 274.654,108.678 272.527 C 108.420 271.923,107.489 270.440,106.610 269.231 C 105.731 268.022,104.546 265.962,103.976 264.652 C 103.406 263.342,102.716 262.271,102.443 262.271 C 102.171 262.271,101.731 261.282,101.465 260.073 C 101.200 258.864,100.679 257.875,100.308 257.875 C 99.937 257.875,99.634 257.216,99.634 256.410 C 99.634 255.604,99.269 254.945,98.823 254.945 C 98.377 254.945,98.197 254.461,98.424 253.870 C 98.651 253.278,98.522 252.599,98.137 252.361 C 97.751 252.123,97.436 251.288,97.436 250.506 C 97.436 249.724,97.144 249.084,96.786 249.084 C 96.429 249.084,95.916 247.608,95.645 245.805 C 95.375 244.001,94.843 242.333,94.463 242.098 C 94.084 241.864,93.773 240.702,93.773 239.517 C 93.773 238.332,93.443 237.363,93.040 237.363 C 92.637 237.363,92.308 236.063,92.308 234.475 C 92.308 232.888,92.009 231.404,91.644 231.178 C 91.279 230.952,91.158 230.087,91.376 229.255 C 91.593 228.423,91.419 227.022,90.989 226.142 C 88.475 221.003,88.481 190.768,90.996 185.579 C 91.422 184.699,91.593 183.298,91.376 182.466 C 91.158 181.635,91.279 180.769,91.644 180.544 C 92.009 180.318,92.308 178.834,92.308 177.246 C 92.308 175.658,92.637 174.359,93.040 174.359 C 93.443 174.359,93.773 173.524,93.773 172.504 C 93.773 171.484,94.267 169.465,94.872 168.019 C 95.476 166.572,95.971 164.770,95.971 164.013 C 95.971 163.256,96.300 162.637,96.703 162.637 C 97.106 162.637,97.446 162.060,97.459 161.355 C 97.472 160.650,97.967 159.433,98.558 158.651 C 99.150 157.869,99.634 156.531,99.634 155.678 C 99.634 154.824,100.094 153.497,100.657 152.727 C 101.850 151.096,103.394 155.294,104.843 164.103 C 105.273 166.722,105.926 169.437,106.293 170.137 C 106.660 170.836,106.960 171.928,106.960 172.563 C 106.960 173.198,107.474 175.428,108.102 177.518 C 108.731 179.608,109.594 182.637,110.020 184.249 C 112.830 194.879,117.320 204.722,122.722 212.090 C 126.369 217.065,136.767 227.106,138.272 227.106 C 138.680 227.106,139.417 227.591,139.910 228.185 C 141.022 229.525,155.387 236.630,156.985 236.630 C 157.629 236.630,158.359 236.960,158.608 237.363 C 158.857 237.766,159.800 238.095,160.703 238.095 C 161.606 238.095,162.696 238.447,163.126 238.877 C 163.556 239.307,166.435 239.850,169.523 240.083 C 172.611 240.317,175.312 240.789,175.524 241.133 C 176.043 241.972,184.555 241.929,188.451 241.067 C 190.169 240.687,194.036 240.017,197.043 239.578 C 200.051 239.138,203.480 238.295,204.665 237.704 C 205.849 237.113,207.180 236.629,207.622 236.627 C 209.226 236.621,221.978 229.567,221.978 228.685 C 221.978 228.421,216.919 228.205,210.736 228.205 C 203.839 228.205,198.812 227.882,197.732 227.370 C 196.763 226.911,194.584 226.160,192.890 225.702 C 191.195 225.244,189.382 224.462,188.861 223.965 C 188.339 223.467,186.944 222.631,185.761 222.106 C 176.684 218.082,163.906 203.234,156.648 188.278 C 153.135 181.039,148.946 171.848,147.967 169.231 C 147.439 167.821,146.679 166.239,146.279 165.716 C 145.878 165.193,144.365 162.391,142.916 159.489 C 136.690 147.017,127.010 136.238,117.766 131.483 C 116.255 130.706,115.018 129.945,115.018 129.793 C 115.018 128.443,131.542 111.562,134.217 110.178 C 135.319 109.609,136.571 108.486,137.000 107.685 C 137.429 106.883,138.212 106.227,138.740 106.227 C 139.268 106.227,140.296 105.568,141.026 104.762 C 141.755 103.956,142.652 103.297,143.020 103.297 C 143.387 103.297,144.737 102.554,146.020 101.647 C 149.479 99.199,150.655 98.539,157.875 94.996 C 167.062 90.488,169.646 89.377,170.947 89.377 C 171.567 89.377,172.267 89.067,172.501 88.687 C 172.736 88.307,174.408 87.775,176.217 87.504 C 178.025 87.232,179.685 86.719,179.906 86.362 C 180.126 86.006,181.375 85.714,182.681 85.714 C 183.986 85.714,185.374 85.395,185.764 85.005 C 188.884 81.886,235.942 81.914,239.158 85.038 C 239.540 85.410,240.941 85.714,242.271 85.714 C 243.601 85.714,244.689 86.058,244.689 86.479 C 244.689 86.900,245.101 87.167,245.604 87.073 C 246.716 86.867,251.173 87.875,252.723 88.684 C 253.660 89.173,255.324 89.848,257.143 90.476 C 258.333 90.887,260.741 91.865,262.748 92.752 C 264.018 93.314,265.391 93.773,265.801 93.773 C 266.210 93.773,266.654 94.036,266.789 94.357 C 266.923 94.678,268.516 95.656,270.330 96.531 C 275.841 99.188,279.438 101.399,280.444 102.747 C 280.971 103.452,281.881 104.029,282.466 104.029 C 283.052 104.029,284.095 104.689,284.785 105.495 C 285.475 106.300,286.421 106.960,286.886 106.960 C 288.685 106.960,289.613 109.284,289.464 113.412 C 289.089 123.795,299.270 130.751,309.186 126.886 C 311.424 126.014,316.698 120.354,316.130 119.435 C 315.908 119.076,316.062 118.575,316.472 118.322 C 320.622 115.757,313.599 102.293,307.326 100.789 C 302.632 99.663,300.523 99.520,300.043 100.296 C 299.243 101.591,297.040 101.221,295.535 99.540 C 293.253 96.991,277.185 86.724,274.371 86.018 C 273.357 85.764,272.527 85.262,272.527 84.902 C 272.527 84.543,272.148 84.249,271.685 84.249 C 271.221 84.249,269.161 83.464,267.106 82.505 C 260.079 79.225,258.020 78.388,256.971 78.388 C 256.394 78.388,255.696 78.162,255.420 77.886 C 254.509 76.976,249.661 75.564,248.705 75.931 C 248.189 76.128,247.550 75.938,247.284 75.508 C 247.018 75.077,245.830 74.725,244.645 74.725 C 243.460 74.725,242.491 74.371,242.491 73.937 C 242.491 73.504,241.584 73.222,240.476 73.310 C 239.368 73.398,237.967 73.279,237.363 73.045 C 233.725 71.638,198.888 70.520,195.971 71.716 M262.271 132.993 C 262.271 133.293,263.071 136.047,264.048 139.114 C 268.269 152.354,269.597 159.801,269.597 170.221 C 269.597 176.924,268.598 184.623,267.440 186.837 C 267.117 187.455,266.608 189.103,266.309 190.500 C 266.010 191.897,265.426 193.460,265.012 193.974 C 263.818 195.456,265.025 195.946,267.115 194.828 C 269.484 193.560,279.379 183.122,280.798 180.395 C 281.372 179.291,282.529 177.070,283.368 175.458 C 285.363 171.629,286.730 168.314,288.355 163.370 C 289.084 161.154,289.930 158.991,290.235 158.564 C 291.659 156.575,290.370 143.659,288.595 142.125 C 288.362 141.923,287.966 141.200,287.714 140.517 C 287.014 138.616,278.627 134.932,272.894 134.007 C 264.259 132.615,262.271 132.425,262.271 132.993 M308.425 151.648 C 307.876 153.663,307.157 155.311,306.827 155.311 C 306.497 155.311,306.227 155.795,306.227 156.385 C 306.227 157.455,305.053 160.364,302.372 165.934 C 299.366 172.180,295.939 177.571,291.564 182.936 C 291.167 183.423,290.842 184.033,290.842 184.293 C 290.842 189.559,257.516 218.278,241.894 226.474 C 239.603 227.676,237.234 228.933,236.630 229.267 C 236.026 229.602,234.377 230.382,232.967 231.002 C 231.557 231.622,228.757 232.851,226.746 233.734 C 224.734 234.617,221.108 235.961,218.687 236.720 C 216.266 237.480,213.626 238.384,212.821 238.730 C 198.151 245.016,163.975 247.247,152.381 242.676 C 150.001 241.738,144.672 240.439,144.381 240.727 C 142.689 242.398,159.571 253.200,171.429 258.033 C 172.436 258.443,173.823 259.064,174.510 259.412 C 175.198 259.761,177.176 260.262,178.906 260.526 C 180.636 260.790,182.412 261.288,182.852 261.633 C 185.687 263.852,215.906 265.317,226.740 263.760 C 241.998 261.568,254.235 258.223,265.405 253.189 C 267.733 252.140,269.826 251.282,270.056 251.282 C 270.648 251.282,275.749 248.877,276.190 248.390 C 276.392 248.167,278.864 246.415,281.685 244.497 C 288.388 239.936,293.143 236.087,294.459 234.155 C 295.042 233.300,297.104 230.804,299.041 228.608 C 300.979 226.413,302.564 224.228,302.564 223.753 C 302.564 223.278,303.027 222.506,303.592 222.037 C 305.842 220.170,312.088 205.142,312.088 201.597 C 312.088 200.477,312.398 199.247,312.778 198.864 C 315.017 196.605,315.005 160.218,312.764 157.912 C 312.392 157.529,312.088 156.282,312.088 155.141 C 312.088 153.240,310.330 147.985,309.694 147.985 C 309.544 147.985,308.974 149.634,308.425 151.648 M178.585 269.501 C 173.404 270.699,169.231 277.156,169.231 283.973 C 169.231 299.795,189.691 304.942,197.266 291.024 C 204.028 278.600,193.198 266.121,178.585 269.501 M250.792 269.487 C 249.302 269.934,245.703 273.006,243.223 275.949 C 240.763 278.870,241.725 290.346,244.689 293.422 C 249.142 298.043,255.489 300.224,259.707 298.582 C 268.281 295.244,271.258 291.461,271.227 283.943 C 271.187 274.474,265.766 269.011,256.410 269.011 C 254.194 269.011,251.666 269.225,250.792 269.487 " stroke="none" fill="#000000" fill-rule="evenodd"></path></g></svg>